Coordinates
version=1
nRows=14
nColumns=33
inDegrees=yes

Units are S.I. units (second, meters, Newtons, ...)
Angles are in degrees.

endheader
time	ground_thorax_rot_x	ground_thorax_rot_y	ground_thorax_rot_z	ground_thorax_tx	ground_thorax_ty	ground_thorax_tz	clav_prot_r	clav_elev_r	scapula_abduction_r	scapula_elevation_r	scapula_upward_rot_r	scapula_winging_r	shoulder_elv_r	plane_of_elev_r	axial_rot_r	elbow_flexion_r	pro_sup_r	wrist_flex_r	wrist_dev_r	clav_prot_l	clav_elev_l	scapula_abduction_l	scapula_elevation_l	scapula_upward_rot_l	scapula_winging_l	shoulder_elv_l	plane_of_elev_l	axial_rot_l	elbow_flexion_l	pro_sup_l	wrist_flex_l	wrist_dev_l	
4.6900	-40.417997	-8.859159	7.237091	-194.459120	839.779158	-9.720591	9.408466	-45.000000	32.408157	-45.000000	-45.000000	2421.750920	-1732.224442	28.160873	89.853402	12.509740	30.805821	18.276313	7.748010	15.412389	38.388522	-34.982039	-45.000000	-45.000000	-1717.592077	-1900.255243	141.071909	156.623266	1089.731775	33.454420	9.225836	-21.911561	
4.7000	-40.367796	-8.647301	7.230063	-195.318653	841.086193	-9.746969	9.347247	-45.000000	32.414914	-45.000000	-45.000000	2421.683132	-1732.196699	28.218274	89.601380	12.536964	30.727879	18.221519	7.649779	15.343983	38.421982	-34.982982	-45.000000	-45.000000	-1717.516053	-1900.228988	141.149036	156.258228	1089.831192	33.572090	9.114282	-21.894262	
4.7100	-40.320213	-8.443968	7.244389	-196.105122	842.342946	-9.762335	9.251727	-45.000000	32.403019	-45.000000	-45.000000	2421.632708	-1732.161022	28.250537	89.330276	12.562264	30.642912	18.167072	7.534090	15.241836	38.516080	-34.996227	-45.000000	-45.000000	-1717.439199	-1900.208265	141.242009	155.858988	1089.943374	33.702250	9.011459	-21.879251	
4.7200	-40.265320	-8.283307	7.255161	-196.730247	843.492940	-9.754340	9.231736	-45.000000	32.419557	-45.000000	-45.000000	2421.577329	-1732.119966	28.322558	89.113228	12.596838	30.548239	18.132186	7.464166	15.193476	38.522032	-34.962619	-45.000000	-45.000000	-1717.378288	-1900.183170	141.293895	155.603418	1090.020404	33.831871	8.911521	-21.864201	
4.7300	-40.209619	-8.165108	7.288057	-197.190840	844.526762	-9.720674	9.243207	-45.000000	32.447943	-45.000000	-45.000000	2421.526300	-1732.072929	28.396791	88.927230	12.634210	30.447487	18.114869	7.427379	15.169555	38.481998	-34.917627	-45.000000	-45.000000	-1717.318190	-1900.162878	141.336598	155.417506	1090.089313	33.971020	8.804727	-21.846374	
4.7400	-40.154448	-8.072644	7.326290	-197.474035	845.428074	-9.657714	9.278429	-45.000000	32.485439	-45.000000	-45.000000	2421.485988	-1732.026261	28.476781	88.768914	12.664887	30.343323	18.102531	7.397047	15.155246	38.444718	-34.864120	-45.000000	-45.000000	-1717.274298	-1900.134924	141.368940	155.275478	1090.153660	34.128108	8.703510	-21.830107	
4.7500	-40.103515	-8.015268	7.389896	-197.591286	846.194397	-9.565115	9.322762	-45.000000	32.529007	-45.000000	-45.000000	2421.455161	-1731.977060	28.542589	88.639987	12.691832	30.247043	18.105343	7.393218	15.153760	38.377425	-34.823385	-45.000000	-45.000000	-1717.225452	-1900.115552	141.403109	155.156587	1090.220495	34.305689	8.587559	-21.807052	
4.7600	-40.059173	-7.962985	7.455274	-197.564777	846.830997	-9.444801	9.359546	-45.000000	32.570946	-45.000000	-45.000000	2421.437459	-1731.935813	28.597305	88.525554	12.704301	30.165511	18.099971	7.366304	15.140247	38.363237	-34.797291	-45.000000	-45.000000	-1717.195568	-1900.084192	141.440374	155.018302	1090.297573	34.511991	8.477892	-21.784998	
4.7700	-40.023803	-7.931850	7.531967	-197.415984	847.345688	-9.299995	9.395103	-45.000000	32.613878	-45.000000	-45.000000	2421.429169	-1731.894501	28.639684	88.440672	12.715590	30.114237	18.109060	7.363724	15.137104	38.315208	-34.790374	-45.000000	-45.000000	-1717.158707	-1900.064509	141.474440	154.884448	1090.370039	34.742671	8.352711	-21.753492	
4.7800	-39.995763	-7.897522	7.595731	-197.164634	847.749245	-9.135404	9.424606	-45.000000	32.655783	-45.000000	-45.000000	2421.428019	-1731.861205	28.680349	88.370506	12.721060	30.098600	18.107509	7.331534	15.127313	38.317513	-34.787919	-45.000000	-45.000000	-1717.144866	-1900.030282	141.501719	154.743192	1090.441583	35.001454	8.239056	-21.722928	
4.7900	-39.978828	-7.880735	7.664130	-196.828680	848.055204	-8.956975	9.452964	-45.000000	32.693440	-45.000000	-45.000000	2421.432482	-1731.826172	28.713051	88.323141	12.732874	30.133506	18.122558	7.325820	15.128941	38.276396	-34.799731	-45.000000	-45.000000	-1717.120222	-1900.010086	141.522130	154.616571	1090.505710	35.281631	8.113426	-21.685995	
4.8000	-39.969644	-7.861794	7.719856	-196.424290	848.279290	-8.771458	9.475100	-45.000000	32.730793	-45.000000	-44.999999	2421.439979	-1731.799523	28.744915	88.279585	12.746796	30.222228	18.125097	7.285362	15.125093	38.289184	-34.811468	-45.000000	-45.000000	-1717.112180	-1899.970345	141.541454	154.490425	1090.574823	35.586355	8.001101	-21.653847	
4.8100	-39.969020	-7.855482	7.772517	-195.966327	848.438287	-8.585781	9.496181	-45.000000	32.767155	-45.000000	-44.999999	2421.455761	-1731.770819	28.775639	88.248294	12.772710	30.377739	18.143416	7.268187	15.131289	38.262201	-34.835560	-45.000000	-45.000000	-1717.090247	-1899.941575	141.559948	154.379418	1090.639833	35.909790	7.881788	-21.621696	
4.8200	-39.970834	-7.848631	7.810659	-195.468247	848.548967	-8.406266	9.508418	-45.000000	32.813674	-45.000000	-44.999998	2421.477073	-1731.746145	28.807321	88.213161	12.807397	30.599528	18.147812	7.211860	15.134209	38.296158	-34.854439	-45.000000	-45.000000	-1717.081230	-1899.893690	141.580079	154.270797	1090.713653	36.253524	7.776773	-21.596761	
